<svg width="20" height="20" viewBox="0 0 20 20" fill="none" xmlns="http://www.w3.org/2000/svg">
<path d="M17.9165 12.4998C17.9147 11.9996 17.7628 11.5114 17.4805 11.0984C17.1983 10.6854 16.7986 10.3666 16.3332 10.1832L17.8915 4.34984C17.9241 4.22561 17.9275 4.09554 17.9014 3.96977C17.8754 3.84401 17.8207 3.72596 17.7415 3.62485C17.6606 3.5301 17.5594 3.45471 17.4455 3.40424C17.3315 3.35376 17.2077 3.32948 17.0832 3.33318H5.6665L5.3915 2.28318C5.34369 2.1056 5.23848 1.94883 5.09228 1.83729C4.94607 1.72575 4.76707 1.6657 4.58317 1.66651H2.9165V3.33318H3.9415L6.00817 11.0498C6.057 11.2316 6.16595 11.3916 6.31727 11.5035C6.46859 11.6155 6.65337 11.673 6.8415 11.6665H15.4165C15.6375 11.6665 15.8495 11.7543 16.0058 11.9106C16.162 12.0669 16.2498 12.2788 16.2498 12.4998C16.2498 12.7209 16.162 12.9328 16.0058 13.0891C15.8495 13.2454 15.6375 13.3332 15.4165 13.3332H4.58317C4.36216 13.3332 4.1502 13.421 3.99392 13.5773C3.83763 13.7335 3.74984 13.9455 3.74984 14.1665C3.74984 14.3875 3.83763 14.5995 3.99392 14.7558C4.1502 14.912 4.36216 14.9998 4.58317 14.9998H5.5665C5.42945 15.3775 5.38541 15.7825 5.43811 16.1808C5.49082 16.579 5.63871 16.9587 5.86927 17.2876C6.09983 17.6166 6.40627 17.8852 6.76263 18.0706C7.119 18.256 7.51479 18.3528 7.9165 18.3528C8.31822 18.3528 8.71401 18.256 9.07038 18.0706C9.42674 17.8852 9.73318 17.6166 9.96374 17.2876C10.1943 16.9587 10.3422 16.579 10.3949 16.1808C10.4476 15.7825 10.4036 15.3775 10.2665 14.9998H12.2332C12.1084 15.3437 12.0606 15.7107 12.0932 16.075C12.1257 16.4394 12.2378 16.7921 12.4215 17.1084C12.6053 17.4247 12.8562 17.6968 13.1565 17.9055C13.4569 18.1142 13.7994 18.2545 14.1599 18.3165C14.5204 18.3784 14.8901 18.3605 15.2429 18.264C15.5957 18.1675 15.923 17.9947 16.2018 17.7579C16.4806 17.5211 16.704 17.226 16.8563 16.8934C17.0086 16.5609 17.086 16.1989 17.0832 15.8332C17.0816 15.4026 16.9667 14.9801 16.7498 14.6082C17.1062 14.3835 17.4 14.0724 17.6039 13.7038C17.8079 13.3353 17.9154 12.9211 17.9165 12.4998ZM14.6582 9.99984H7.49984L6.1165 4.99985H15.9998L14.6582 9.99984ZM7.9165 16.6665C7.75169 16.6665 7.59057 16.6176 7.45353 16.5261C7.31649 16.4345 7.20968 16.3044 7.1466 16.1521C7.08353 15.9998 7.06703 15.8323 7.09918 15.6706C7.13134 15.509 7.2107 15.3605 7.32725 15.2439C7.44379 15.1274 7.59228 15.048 7.75393 15.0159C7.91558 14.9837 8.08314 15.0002 8.23541 15.0633C8.38768 15.1264 8.51783 15.2332 8.6094 15.3702C8.70096 15.5072 8.74984 15.6684 8.74984 15.8332C8.74984 16.0542 8.66204 16.2662 8.50576 16.4224C8.34948 16.5787 8.13752 16.6665 7.9165 16.6665ZM14.5832 16.6665C14.4184 16.6665 14.2572 16.6176 14.1202 16.5261C13.9832 16.4345 13.8763 16.3044 13.8133 16.1521C13.7502 15.9998 13.7337 15.8323 13.7658 15.6706C13.798 15.509 13.8774 15.3605 13.9939 15.2439C14.1105 15.1274 14.2589 15.048 14.4206 15.0159C14.5822 14.9837 14.7498 15.0002 14.9021 15.0633C15.0543 15.1264 15.1845 15.2332 15.2761 15.3702C15.3676 15.5072 15.4165 15.6684 15.4165 15.8332C15.4165 16.0542 15.3287 16.2662 15.1724 16.4224C15.0161 16.5787 14.8042 16.6665 14.5832 16.6665Z" fill="#1F1D14"/>
</svg>
