<svg width="165" height="53" viewBox="0 0 165 53" fill="none" xmlns="http://www.w3.org/2000/svg">
<rect width="165" height="53" rx="5" fill="#F2F2F2"/>
<path d="M47.9165 29.4998C47.9147 28.9996 47.7628 28.5114 47.4805 28.0984C47.1983 27.6854 46.7986 27.3666 46.3332 27.1832L47.8915 21.3498C47.9241 21.2256 47.9275 21.0955 47.9014 20.9698C47.8754 20.844 47.8207 20.726 47.7415 20.6248C47.6606 20.5301 47.5594 20.4547 47.4455 20.4042C47.3315 20.3538 47.2077 20.3295 47.0832 20.3332H35.6665L35.3915 19.2832C35.3437 19.1056 35.2385 18.9488 35.0923 18.8373C34.9461 18.7258 34.7671 18.6657 34.5832 18.6665H32.9165V20.3332H33.9415L36.0082 28.0498C36.057 28.2316 36.166 28.3916 36.3173 28.5035C36.4686 28.6155 36.6534 28.673 36.8415 28.6665H45.4165C45.6375 28.6665 45.8495 28.7543 46.0058 28.9106C46.162 29.0669 46.2498 29.2788 46.2498 29.4998C46.2498 29.7209 46.162 29.9328 46.0058 30.0891C45.8495 30.2454 45.6375 30.3332 45.4165 30.3332H34.5832C34.3622 30.3332 34.1502 30.421 33.9939 30.5773C33.8376 30.7335 33.7498 30.9455 33.7498 31.1665C33.7498 31.3875 33.8376 31.5995 33.9939 31.7558C34.1502 31.912 34.3622 31.9998 34.5832 31.9998H35.5665C35.4294 32.3775 35.3854 32.7825 35.4381 33.1808C35.4908 33.579 35.6387 33.9587 35.8693 34.2876C36.0998 34.6166 36.4063 34.8852 36.7626 35.0706C37.119 35.256 37.5148 35.3528 37.9165 35.3528C38.3182 35.3528 38.714 35.256 39.0704 35.0706C39.4267 34.8852 39.7332 34.6166 39.9637 34.2876C40.1943 33.9587 40.3422 33.579 40.3949 33.1808C40.4476 32.7825 40.4036 32.3775 40.2665 31.9998H42.2332C42.1084 32.3437 42.0606 32.7107 42.0932 33.075C42.1257 33.4394 42.2378 33.7921 42.4215 34.1084C42.6053 34.4247 42.8562 34.6968 43.1565 34.9055C43.4569 35.1142 43.7994 35.2545 44.1599 35.3165C44.5204 35.3784 44.8901 35.3605 45.2429 35.264C45.5957 35.1675 45.923 34.9947 46.2018 34.7579C46.4806 34.5211 46.704 34.226 46.8563 33.8934C47.0086 33.5609 47.086 33.1989 47.0832 32.8332C47.0816 32.4026 46.9667 31.9801 46.7498 31.6082C47.1062 31.3835 47.4 31.0724 47.6039 30.7038C47.8079 30.3353 47.9154 29.9211 47.9165 29.4998ZM44.6582 26.9998H37.4998L36.1165 21.9998H45.9998L44.6582 26.9998ZM37.9165 33.6665C37.7517 33.6665 37.5906 33.6176 37.4535 33.5261C37.3165 33.4345 37.2097 33.3044 37.1466 33.1521C37.0835 32.9998 37.067 32.8323 37.0992 32.6706C37.1313 32.509 37.2107 32.3605 37.3272 32.2439C37.4438 32.1274 37.5923 32.048 37.7539 32.0159C37.9156 31.9837 38.0831 32.0002 38.2354 32.0633C38.3877 32.1264 38.5178 32.2332 38.6094 32.3702C38.701 32.5072 38.7498 32.6684 38.7498 32.8332C38.7498 33.0542 38.662 33.2662 38.5058 33.4224C38.3495 33.5787 38.1375 33.6665 37.9165 33.6665ZM44.5832 33.6665C44.4184 33.6665 44.2572 33.6176 44.1202 33.5261C43.9832 33.4345 43.8763 33.3044 43.8133 33.1521C43.7502 32.9998 43.7337 32.8323 43.7658 32.6706C43.798 32.509 43.8774 32.3605 43.9939 32.2439C44.1105 32.1274 44.2589 32.048 44.4206 32.0159C44.5822 31.9837 44.7498 32.0002 44.9021 32.0633C45.0543 32.1264 45.1845 32.2332 45.2761 32.3702C45.3676 32.5072 45.4165 32.6684 45.4165 32.8332C45.4165 33.0542 45.3287 33.2662 45.1724 33.4224C45.0161 33.5787 44.8042 33.6665 44.5832 33.6665Z" fill="#1F1D14"/>
<path d="M66.2 20.22L62.38 26.68L66.58 34H64.38L60.78 27.54H58.9V34H57V20.22H58.9V25.98H60.8L64.2 20.22H66.2ZM72.3639 23.22C73.8439 23.22 74.9906 23.7133 75.8039 24.7C76.6306 25.6867 77.0439 27.0267 77.0439 28.72C77.0439 29.8133 76.8572 30.78 76.4839 31.62C76.1106 32.4467 75.5706 33.0933 74.8639 33.56C74.1572 34.0133 73.3172 34.24 72.3439 34.24C70.8639 34.24 69.7106 33.7467 68.8839 32.76C68.0572 31.7733 67.6439 30.4333 67.6439 28.74C67.6439 27.6467 67.8306 26.6867 68.2039 25.86C68.5772 25.02 69.1172 24.3733 69.8239 23.92C70.5306 23.4533 71.3772 23.22 72.3639 23.22ZM72.3639 24.7C70.5372 24.7 69.6239 26.0467 69.6239 28.74C69.6239 31.42 70.5306 32.76 72.3439 32.76C74.1572 32.76 75.0639 31.4133 75.0639 28.72C75.0639 26.04 74.1639 24.7 72.3639 24.7ZM84.9236 23.22C86.2703 23.22 87.2569 23.7 87.8836 24.66C88.5103 25.62 88.8236 26.9733 88.8236 28.72C88.8236 30.3733 88.4636 31.7067 87.7436 32.72C87.0236 33.7333 86.0036 34.24 84.6836 34.24C83.5103 34.24 82.5903 33.84 81.9236 33.04V38.04L80.0836 38.26V23.46H81.6636L81.8036 24.88C82.1903 24.3467 82.6569 23.94 83.2036 23.66C83.7503 23.3667 84.3236 23.22 84.9236 23.22ZM84.2436 32.74C85.9769 32.74 86.8436 31.4 86.8436 28.72C86.8436 26.0267 86.0503 24.68 84.4636 24.68C83.9436 24.68 83.4703 24.8333 83.0436 25.14C82.6169 25.4467 82.2436 25.84 81.9236 26.32V31.46C82.1903 31.8733 82.5236 32.1933 82.9236 32.42C83.3236 32.6333 83.7636 32.74 84.2436 32.74ZM94.0508 23.22C94.7174 23.22 95.3374 23.3333 95.9108 23.56C96.4974 23.7733 96.9641 24.0933 97.3108 24.52C97.6708 24.9467 97.8508 25.46 97.8508 26.06C97.8508 26.6467 97.6774 27.1267 97.3308 27.5C96.9974 27.8733 96.4641 28.16 95.7308 28.36C96.6108 28.5067 97.2774 28.78 97.7308 29.18C98.1841 29.58 98.4108 30.1533 98.4108 30.9C98.4108 31.9933 97.9841 32.8267 97.1308 33.4C96.2908 33.96 95.2174 34.24 93.9108 34.24C92.3241 34.24 90.9708 33.8 89.8508 32.92L90.8108 31.78C91.2774 32.1133 91.7441 32.36 92.2108 32.52C92.6908 32.68 93.2374 32.76 93.8508 32.76C95.5708 32.76 96.4308 32.1333 96.4308 30.88C96.4308 30.2667 96.1841 29.84 95.6908 29.6C95.2108 29.3467 94.5374 29.22 93.6708 29.22H92.2708L92.3908 27.78H93.4708C94.2174 27.78 94.8174 27.6467 95.2708 27.38C95.7241 27.1133 95.9508 26.7 95.9508 26.14C95.9508 25.62 95.7574 25.2467 95.3708 25.02C94.9841 24.78 94.4774 24.66 93.8508 24.66C93.3041 24.66 92.8174 24.7333 92.3908 24.88C91.9774 25.0133 91.5574 25.2267 91.1308 25.52L90.2508 24.42C90.7841 24.02 91.3574 23.72 91.9708 23.52C92.5841 23.32 93.2774 23.22 94.0508 23.22ZM109.651 34H107.831V29.24C107.831 28.44 107.857 27.68 107.911 26.96C107.964 26.24 108.011 25.7667 108.051 25.54L103.631 34H101.451V23.46H103.271V28.22C103.271 28.9267 103.244 29.66 103.191 30.42C103.137 31.1667 103.097 31.6467 103.071 31.86L107.431 23.46H109.651V34ZM119.663 34V29.36H115.283V34H113.443V23.46H115.283V27.88H119.663V23.46H121.503V34H119.663ZM132.398 31.54C132.398 31.9667 132.472 32.2867 132.618 32.5C132.765 32.7 132.985 32.8533 133.278 32.96L132.858 34.24C132.312 34.1733 131.872 34.02 131.538 33.78C131.205 33.54 130.958 33.1667 130.798 32.66C130.092 33.7133 129.045 34.24 127.658 34.24C126.618 34.24 125.798 33.9467 125.198 33.36C124.598 32.7733 124.298 32.0067 124.298 31.06C124.298 29.94 124.698 29.08 125.498 28.48C126.312 27.88 127.458 27.58 128.938 27.58H130.558V26.8C130.558 26.0533 130.378 25.52 130.018 25.2C129.658 24.88 129.105 24.72 128.358 24.72C127.585 24.72 126.638 24.9067 125.518 25.28L125.058 23.94C126.365 23.46 127.578 23.22 128.698 23.22C129.938 23.22 130.865 23.5267 131.478 24.14C132.092 24.74 132.398 25.6 132.398 26.72V31.54ZM128.078 32.86C129.132 32.86 129.958 32.3133 130.558 31.22V28.8H129.178C127.232 28.8 126.258 29.52 126.258 30.96C126.258 31.5867 126.412 32.06 126.718 32.38C127.025 32.7 127.478 32.86 128.078 32.86Z" fill="#1F1D14"/>
</svg>
