<svg width="50" height="50" viewBox="0 0 50 50" fill="none" xmlns="http://www.w3.org/2000/svg">
<rect y="5" width="45" height="45" rx="3" fill="#F2F2F2"/>
<path d="M29.8001 22.1668C28.9115 21.2874 27.7378 20.7545 26.4909 20.6644C25.244 20.5742 24.0059 20.9327 23.0001 21.6751C21.9398 20.8865 20.6201 20.5289 19.3067 20.6743C17.9933 20.8198 16.7838 21.4575 15.9217 22.459C15.0597 23.4605 14.6091 24.7514 14.6607 26.0718C14.7124 27.3922 15.2624 28.644 16.2001 29.5751L21.2001 34.6168C21.6688 35.085 22.3042 35.3479 22.9667 35.3479C23.6292 35.3479 24.2646 35.085 24.7334 34.6168L29.7334 29.5751C30.2258 29.094 30.6183 28.5203 30.8884 27.887C31.1584 27.2537 31.3006 26.5733 31.3067 25.8848C31.3129 25.1964 31.183 24.5135 30.9245 23.8755C30.6659 23.2374 30.2838 22.6567 29.8001 22.1668ZM28.6251 28.3835L23.6251 33.3835C23.5476 33.4616 23.4554 33.5236 23.3539 33.5659C23.2523 33.6082 23.1434 33.63 23.0334 33.63C22.9234 33.63 22.8145 33.6082 22.7129 33.5659C22.6114 33.5236 22.5192 33.4616 22.4417 33.3835L17.4417 28.3835C16.7882 27.7154 16.4222 26.818 16.4222 25.8835C16.4222 24.9489 16.7882 24.0515 17.4417 23.3835C18.1077 22.726 19.0059 22.3573 19.9417 22.3573C20.8776 22.3573 21.7758 22.726 22.4417 23.3835C22.5192 23.4616 22.6114 23.5236 22.7129 23.5659C22.8145 23.6082 22.9234 23.63 23.0334 23.63C23.1434 23.63 23.2523 23.6082 23.3539 23.5659C23.4554 23.5236 23.5476 23.4616 23.6251 23.3835C24.309 22.8392 25.1694 22.5657 26.0421 22.6152C26.9148 22.6647 27.7387 23.0336 28.3568 23.6517C28.9749 24.2698 29.3438 25.0937 29.3933 25.9664C29.4428 26.8391 29.1693 27.6995 28.6251 28.3835Z" fill="#1F1D14"/>
<circle cx="43" cy="7" r="7" fill="#FF1313"/>
</svg>
