<svg width="45" height="45" viewBox="0 0 45 45" fill="none" xmlns="http://www.w3.org/2000/svg">
<rect width="45" height="45" rx="3" fill="#F2F2F2"/>
<path d="M26.0919 23.5917C26.9089 22.9489 27.5052 22.0675 27.7979 21.07C28.0906 20.0725 28.0652 19.0086 27.7251 18.0262C27.385 17.0439 26.7471 16.192 25.9003 15.5891C25.0535 14.9861 24.0398 14.6621 23.0002 14.6621C21.9607 14.6621 20.947 14.9861 20.1002 15.5891C19.2534 16.192 18.6155 17.0439 18.2754 18.0262C17.9353 19.0086 17.9098 20.0725 18.2025 21.07C18.4952 22.0675 19.0916 22.9489 19.9086 23.5917C18.5086 24.1526 17.2871 25.0828 16.3743 26.2833C15.4615 27.4838 14.8915 28.9094 14.7252 30.4084C14.7132 30.5178 14.7228 30.6285 14.7536 30.7342C14.7844 30.8399 14.8356 30.9386 14.9045 31.0245C15.0436 31.1979 15.2459 31.309 15.4669 31.3334C15.6879 31.3577 15.9095 31.2932 16.083 31.1541C16.2565 31.015 16.3676 30.8127 16.3919 30.5917C16.5749 28.9627 17.3516 27.4582 18.5738 26.3657C19.7959 25.2732 21.3777 24.6692 23.0169 24.6692C24.6562 24.6692 26.2379 25.2732 27.4601 26.3657C28.6822 27.4582 29.4589 28.9627 29.6419 30.5917C29.6646 30.7965 29.7623 30.9856 29.9162 31.1225C30.0701 31.2595 30.2692 31.3346 30.4752 31.3334H30.5669C30.7854 31.3082 30.985 31.1978 31.1224 31.0261C31.2597 30.8544 31.3237 30.6353 31.3002 30.4167C31.1332 28.9135 30.5601 27.4842 29.6426 26.2819C28.7251 25.0795 27.4977 24.1496 26.0919 23.5917ZM23.0002 23C22.341 23 21.6965 22.8045 21.1483 22.4383C20.6002 22.072 20.1729 21.5514 19.9206 20.9423C19.6684 20.3332 19.6023 19.663 19.731 19.0164C19.8596 18.3698 20.177 17.7758 20.6432 17.3097C21.1094 16.8435 21.7033 16.526 22.3499 16.3974C22.9965 16.2688 23.6668 16.3348 24.2759 16.5871C24.8849 16.8394 25.4055 17.2666 25.7718 17.8148C26.1381 18.363 26.3336 19.0074 26.3336 19.6667C26.3336 20.5507 25.9824 21.3986 25.3573 22.0237C24.7321 22.6488 23.8843 23 23.0002 23Z" fill="#1F1D14"/>
</svg>
