<svg width="211" height="55" viewBox="0 0 211 55" fill="none" xmlns="http://www.w3.org/2000/svg">
<path d="M11.3652 46.2646H12.2197C12.5114 46.2646 12.7507 46.2008 12.9375 46.0732C13.1289 45.9411 13.2702 45.7611 13.3613 45.5332C13.4525 45.3008 13.498 45.0365 13.498 44.7402C13.498 44.4303 13.4548 44.1637 13.3682 43.9404C13.2861 43.7171 13.1608 43.5462 12.9922 43.4277C12.8281 43.3092 12.6185 43.25 12.3633 43.25C12.1445 43.25 11.9486 43.307 11.7754 43.4209C11.6022 43.5303 11.4655 43.6898 11.3652 43.8994C11.2695 44.1045 11.2217 44.3483 11.2217 44.6309H9.62891C9.62891 44.1022 9.74512 43.6328 9.97754 43.2227C10.21 42.8125 10.529 42.4912 10.9346 42.2588C11.3447 42.0218 11.8118 41.9033 12.3359 41.9033C12.8783 41.9033 13.3545 42.0104 13.7646 42.2246C14.1794 42.4388 14.5029 42.7555 14.7354 43.1748C14.9723 43.5941 15.0908 44.1136 15.0908 44.7334C15.0908 45.0205 15.0361 45.3099 14.9268 45.6016C14.8174 45.8932 14.6533 46.1598 14.4346 46.4014C14.2204 46.6383 13.9492 46.8298 13.6211 46.9756C13.2975 47.1214 12.9147 47.1943 12.4727 47.1943H11.3652V46.2646ZM11.3652 47.5771V46.6611H12.4795C12.9854 46.6611 13.4115 46.7295 13.7578 46.8662C14.1087 46.9984 14.389 47.1852 14.5986 47.4268C14.8128 47.6637 14.9678 47.9372 15.0635 48.2471C15.1592 48.5524 15.207 48.8737 15.207 49.2109C15.207 49.6758 15.1341 50.0905 14.9883 50.4551C14.847 50.8151 14.6442 51.1227 14.3799 51.3779C14.1156 51.6286 13.8102 51.8177 13.4639 51.9453C13.1175 52.0729 12.7393 52.1367 12.3291 52.1367C11.96 52.1367 11.609 52.0775 11.2764 51.959C10.9437 51.8405 10.6475 51.665 10.3877 51.4326C10.1325 51.1956 9.92969 50.9017 9.7793 50.5508C9.63346 50.1953 9.56055 49.7829 9.56055 49.3135H11.1465C11.1465 49.6051 11.1966 49.8626 11.2969 50.0859C11.3971 50.3092 11.5361 50.4847 11.7139 50.6123C11.8962 50.7354 12.1081 50.7969 12.3496 50.7969C12.6094 50.7969 12.8327 50.7354 13.0195 50.6123C13.2109 50.4893 13.3568 50.3092 13.457 50.0723C13.5618 49.8353 13.6143 49.5482 13.6143 49.2109C13.6143 48.8327 13.5573 48.5228 13.4434 48.2812C13.334 48.0397 13.1768 47.862 12.9717 47.748C12.7666 47.6341 12.5182 47.5771 12.2266 47.5771H11.3652ZM25.5088 46.1895V47.8164C25.5088 48.5957 25.4427 49.2611 25.3105 49.8125C25.1784 50.3594 24.9893 50.8037 24.7432 51.1455C24.4971 51.4873 24.2054 51.738 23.8682 51.8975C23.5309 52.057 23.1527 52.1367 22.7334 52.1367C22.4053 52.1367 22.0977 52.0866 21.8105 51.9863C21.5234 51.8861 21.2637 51.7288 21.0312 51.5146C20.8034 51.3005 20.6074 51.0247 20.4434 50.6875C20.2793 50.3457 20.154 49.9378 20.0674 49.4639C19.9808 48.9899 19.9375 48.4408 19.9375 47.8164V46.1895C19.9375 45.4056 20.0059 44.7448 20.1426 44.207C20.2793 43.6647 20.4707 43.2249 20.7168 42.8877C20.9629 42.5459 21.2546 42.2975 21.5918 42.1426C21.9336 41.9876 22.3118 41.9102 22.7266 41.9102C23.0547 41.9102 23.3623 41.9603 23.6494 42.0605C23.9365 42.1562 24.194 42.3089 24.4219 42.5186C24.6497 42.7282 24.8457 43.0016 25.0098 43.3389C25.1738 43.6715 25.2969 44.0749 25.3789 44.5488C25.4655 45.0182 25.5088 45.5651 25.5088 46.1895ZM23.9229 48.0557V45.9365C23.9229 45.5446 23.9046 45.1982 23.8682 44.8975C23.8317 44.5967 23.7816 44.3415 23.7178 44.1318C23.654 43.9222 23.5719 43.7536 23.4717 43.626C23.376 43.4938 23.2643 43.3981 23.1367 43.3389C23.0137 43.2751 22.877 43.2432 22.7266 43.2432C22.5397 43.2432 22.3711 43.291 22.2207 43.3867C22.0749 43.4824 21.9495 43.6374 21.8447 43.8516C21.7445 44.0612 21.667 44.3392 21.6123 44.6855C21.5576 45.0273 21.5303 45.4443 21.5303 45.9365V48.0557C21.5303 48.4521 21.5485 48.8008 21.585 49.1016C21.6214 49.4023 21.6738 49.6621 21.7422 49.8809C21.8105 50.0951 21.8926 50.2705 21.9883 50.4072C22.084 50.5394 22.1934 50.6374 22.3164 50.7012C22.444 50.765 22.583 50.7969 22.7334 50.7969C22.9248 50.7969 23.0934 50.7467 23.2393 50.6465C23.3896 50.5462 23.515 50.389 23.6152 50.1748C23.7155 49.9561 23.7907 49.6712 23.8408 49.3203C23.8955 48.9694 23.9229 48.5479 23.9229 48.0557ZM32.5088 46.1895V47.8164C32.5088 48.5957 32.4427 49.2611 32.3105 49.8125C32.1784 50.3594 31.9893 50.8037 31.7432 51.1455C31.4971 51.4873 31.2054 51.738 30.8682 51.8975C30.5309 52.057 30.1527 52.1367 29.7334 52.1367C29.4053 52.1367 29.0977 52.0866 28.8105 51.9863C28.5234 51.8861 28.2637 51.7288 28.0312 51.5146C27.8034 51.3005 27.6074 51.0247 27.4434 50.6875C27.2793 50.3457 27.154 49.9378 27.0674 49.4639C26.9808 48.9899 26.9375 48.4408 26.9375 47.8164V46.1895C26.9375 45.4056 27.0059 44.7448 27.1426 44.207C27.2793 43.6647 27.4707 43.2249 27.7168 42.8877C27.9629 42.5459 28.2546 42.2975 28.5918 42.1426C28.9336 41.9876 29.3118 41.9102 29.7266 41.9102C30.0547 41.9102 30.3623 41.9603 30.6494 42.0605C30.9365 42.1562 31.194 42.3089 31.4219 42.5186C31.6497 42.7282 31.8457 43.0016 32.0098 43.3389C32.1738 43.6715 32.2969 44.0749 32.3789 44.5488C32.4655 45.0182 32.5088 45.5651 32.5088 46.1895ZM30.9229 48.0557V45.9365C30.9229 45.5446 30.9046 45.1982 30.8682 44.8975C30.8317 44.5967 30.7816 44.3415 30.7178 44.1318C30.654 43.9222 30.5719 43.7536 30.4717 43.626C30.376 43.4938 30.2643 43.3981 30.1367 43.3389C30.0137 43.2751 29.877 43.2432 29.7266 43.2432C29.5397 43.2432 29.3711 43.291 29.2207 43.3867C29.0749 43.4824 28.9495 43.6374 28.8447 43.8516C28.7445 44.0612 28.667 44.3392 28.6123 44.6855C28.5576 45.0273 28.5303 45.4443 28.5303 45.9365V48.0557C28.5303 48.4521 28.5485 48.8008 28.585 49.1016C28.6214 49.4023 28.6738 49.6621 28.7422 49.8809C28.8105 50.0951 28.8926 50.2705 28.9883 50.4072C29.084 50.5394 29.1934 50.6374 29.3164 50.7012C29.444 50.765 29.583 50.7969 29.7334 50.7969C29.9248 50.7969 30.0934 50.7467 30.2393 50.6465C30.3896 50.5462 30.515 50.389 30.6152 50.1748C30.7155 49.9561 30.7907 49.6712 30.8408 49.3203C30.8955 48.9694 30.9229 48.5479 30.9229 48.0557ZM39.5088 46.1895V47.8164C39.5088 48.5957 39.4427 49.2611 39.3105 49.8125C39.1784 50.3594 38.9893 50.8037 38.7432 51.1455C38.4971 51.4873 38.2054 51.738 37.8682 51.8975C37.5309 52.057 37.1527 52.1367 36.7334 52.1367C36.4053 52.1367 36.0977 52.0866 35.8105 51.9863C35.5234 51.8861 35.2637 51.7288 35.0312 51.5146C34.8034 51.3005 34.6074 51.0247 34.4434 50.6875C34.2793 50.3457 34.154 49.9378 34.0674 49.4639C33.9808 48.9899 33.9375 48.4408 33.9375 47.8164V46.1895C33.9375 45.4056 34.0059 44.7448 34.1426 44.207C34.2793 43.6647 34.4707 43.2249 34.7168 42.8877C34.9629 42.5459 35.2546 42.2975 35.5918 42.1426C35.9336 41.9876 36.3118 41.9102 36.7266 41.9102C37.0547 41.9102 37.3623 41.9603 37.6494 42.0605C37.9365 42.1562 38.194 42.3089 38.4219 42.5186C38.6497 42.7282 38.8457 43.0016 39.0098 43.3389C39.1738 43.6715 39.2969 44.0749 39.3789 44.5488C39.4655 45.0182 39.5088 45.5651 39.5088 46.1895ZM37.9229 48.0557V45.9365C37.9229 45.5446 37.9046 45.1982 37.8682 44.8975C37.8317 44.5967 37.7816 44.3415 37.7178 44.1318C37.654 43.9222 37.5719 43.7536 37.4717 43.626C37.376 43.4938 37.2643 43.3981 37.1367 43.3389C37.0137 43.2751 36.877 43.2432 36.7266 43.2432C36.5397 43.2432 36.3711 43.291 36.2207 43.3867C36.0749 43.4824 35.9495 43.6374 35.8447 43.8516C35.7445 44.0612 35.667 44.3392 35.6123 44.6855C35.5576 45.0273 35.5303 45.4443 35.5303 45.9365V48.0557C35.5303 48.4521 35.5485 48.8008 35.585 49.1016C35.6214 49.4023 35.6738 49.6621 35.7422 49.8809C35.8105 50.0951 35.8926 50.2705 35.9883 50.4072C36.084 50.5394 36.1934 50.6374 36.3164 50.7012C36.444 50.765 36.583 50.7969 36.7334 50.7969C36.9248 50.7969 37.0934 50.7467 37.2393 50.6465C37.3896 50.5462 37.515 50.389 37.6152 50.1748C37.7155 49.9561 37.7907 49.6712 37.8408 49.3203C37.8955 48.9694 37.9229 48.5479 37.9229 48.0557ZM47.9033 50.2568V44.6035H49.4961V52H47.9922L47.9033 50.2568ZM48.1289 48.7119L48.6348 48.6982C48.6348 49.195 48.5892 49.653 48.498 50.0723C48.4069 50.4915 48.2656 50.8561 48.0742 51.166C47.8874 51.4714 47.6436 51.7106 47.3428 51.8838C47.0465 52.0524 46.6911 52.1367 46.2764 52.1367C45.971 52.1367 45.6908 52.0843 45.4355 51.9795C45.1849 51.8747 44.9684 51.7129 44.7861 51.4941C44.6084 51.2754 44.4694 50.9906 44.3691 50.6396C44.2689 50.2887 44.2188 49.8695 44.2188 49.3818V44.6035H45.8115V49.3955C45.8115 49.6598 45.8343 49.8809 45.8799 50.0586C45.9255 50.2318 45.9893 50.373 46.0713 50.4824C46.1533 50.5872 46.2445 50.6624 46.3447 50.708C46.4495 50.749 46.5612 50.7695 46.6797 50.7695C47.0397 50.7695 47.3245 50.6807 47.5342 50.5029C47.7484 50.3206 47.901 50.0745 47.9922 49.7646C48.0833 49.4548 48.1289 49.1038 48.1289 48.7119ZM55.9766 50.6602V52H51.3828V50.6602H55.9766ZM55.8877 45.6426L51.916 52H50.8838V50.9199L54.835 44.6035H55.8877V45.6426ZM55.2861 44.6035V45.9502H50.9316V44.6035H55.2861ZM60.7617 50.0518C60.7617 49.8968 60.7161 49.7601 60.625 49.6416C60.5384 49.5186 60.3971 49.3978 60.2012 49.2793C60.0052 49.1608 59.7432 49.0332 59.415 48.8965C59.0732 48.7552 58.7702 48.6139 58.5059 48.4727C58.2415 48.3314 58.0182 48.1764 57.8359 48.0078C57.6536 47.8346 57.5146 47.6364 57.4189 47.4131C57.3232 47.1898 57.2754 46.93 57.2754 46.6338C57.2754 46.3285 57.3324 46.0459 57.4463 45.7861C57.5602 45.5264 57.7243 45.2985 57.9385 45.1025C58.1527 44.902 58.4102 44.7471 58.7109 44.6377C59.0117 44.5238 59.3512 44.4668 59.7295 44.4668C60.2627 44.4668 60.7184 44.5648 61.0967 44.7607C61.4795 44.9521 61.7712 45.221 61.9717 45.5674C62.1768 45.9092 62.2793 46.3034 62.2793 46.75H60.6865C60.6865 46.5632 60.6523 46.3945 60.584 46.2441C60.5156 46.0892 60.4108 45.9661 60.2695 45.875C60.1283 45.7793 59.9482 45.7314 59.7295 45.7314C59.529 45.7314 59.3604 45.7702 59.2236 45.8477C59.0915 45.9206 58.9912 46.0208 58.9229 46.1484C58.859 46.2715 58.8271 46.4105 58.8271 46.5654C58.8271 46.6794 58.8477 46.7796 58.8887 46.8662C58.9297 46.9528 58.998 47.0371 59.0938 47.1191C59.1895 47.1966 59.3171 47.2764 59.4766 47.3584C59.6406 47.4404 59.848 47.5339 60.0986 47.6387C60.5954 47.8301 61.0078 48.0283 61.3359 48.2334C61.6641 48.4385 61.9102 48.6777 62.0742 48.9512C62.2383 49.2246 62.3203 49.5641 62.3203 49.9697C62.3203 50.2979 62.2588 50.5941 62.1357 50.8584C62.0173 51.1227 61.8441 51.3506 61.6162 51.542C61.3929 51.7334 61.1217 51.8815 60.8027 51.9863C60.4883 52.0866 60.1374 52.1367 59.75 52.1367C59.1712 52.1367 58.6813 52.0228 58.2803 51.7949C57.8838 51.5625 57.583 51.264 57.3779 50.8994C57.1729 50.5348 57.0703 50.1497 57.0703 49.7441H58.6084C58.6221 50.0358 58.6836 50.2637 58.793 50.4277C58.9069 50.5918 59.0505 50.7057 59.2236 50.7695C59.3968 50.8288 59.5768 50.8584 59.7637 50.8584C59.987 50.8584 60.1715 50.8288 60.3174 50.7695C60.4632 50.7057 60.5726 50.6123 60.6455 50.4893C60.723 50.3662 60.7617 50.2204 60.7617 50.0518Z" fill="black"/>
<path d="M141.641 48.4316V49.7715H135.557L135.516 48.7529L139.043 42.0469H140.308L139.022 44.542L137.143 48.4316H141.641ZM140.677 42.0469V52H139.077V42.0469H140.677ZM148.374 46.1895V47.8164C148.374 48.5957 148.308 49.2611 148.176 49.8125C148.044 50.3594 147.854 50.8037 147.608 51.1455C147.362 51.4873 147.071 51.738 146.733 51.8975C146.396 52.057 146.018 52.1367 145.599 52.1367C145.271 52.1367 144.963 52.0866 144.676 51.9863C144.389 51.8861 144.129 51.7288 143.896 51.5146C143.669 51.3005 143.473 51.0247 143.309 50.6875C143.145 50.3457 143.019 49.9378 142.933 49.4639C142.846 48.9899 142.803 48.4408 142.803 47.8164V46.1895C142.803 45.4056 142.871 44.7448 143.008 44.207C143.145 43.6647 143.336 43.2249 143.582 42.8877C143.828 42.5459 144.12 42.2975 144.457 42.1426C144.799 41.9876 145.177 41.9102 145.592 41.9102C145.92 41.9102 146.228 41.9603 146.515 42.0605C146.802 42.1562 147.059 42.3089 147.287 42.5186C147.515 42.7282 147.711 43.0016 147.875 43.3389C148.039 43.6715 148.162 44.0749 148.244 44.5488C148.331 45.0182 148.374 45.5651 148.374 46.1895ZM146.788 48.0557V45.9365C146.788 45.5446 146.77 45.1982 146.733 44.8975C146.697 44.5967 146.647 44.3415 146.583 44.1318C146.519 43.9222 146.437 43.7536 146.337 43.626C146.241 43.4938 146.13 43.3981 146.002 43.3389C145.879 43.2751 145.742 43.2432 145.592 43.2432C145.405 43.2432 145.236 43.291 145.086 43.3867C144.94 43.4824 144.815 43.6374 144.71 43.8516C144.61 44.0612 144.532 44.3392 144.478 44.6855C144.423 45.0273 144.396 45.4443 144.396 45.9365V48.0557C144.396 48.4521 144.414 48.8008 144.45 49.1016C144.487 49.4023 144.539 49.6621 144.607 49.8809C144.676 50.0951 144.758 50.2705 144.854 50.4072C144.949 50.5394 145.059 50.6374 145.182 50.7012C145.309 50.765 145.448 50.7969 145.599 50.7969C145.79 50.7969 145.959 50.7467 146.104 50.6465C146.255 50.5462 146.38 50.389 146.48 50.1748C146.581 49.9561 146.656 49.6712 146.706 49.3203C146.761 48.9694 146.788 48.5479 146.788 48.0557ZM158.601 46.1895V47.8164C158.601 48.5957 158.535 49.2611 158.402 49.8125C158.27 50.3594 158.081 50.8037 157.835 51.1455C157.589 51.4873 157.297 51.738 156.96 51.8975C156.623 52.057 156.244 52.1367 155.825 52.1367C155.497 52.1367 155.189 52.0866 154.902 51.9863C154.615 51.8861 154.355 51.7288 154.123 51.5146C153.895 51.3005 153.699 51.0247 153.535 50.6875C153.371 50.3457 153.246 49.9378 153.159 49.4639C153.073 48.9899 153.029 48.4408 153.029 47.8164V46.1895C153.029 45.4056 153.098 44.7448 153.234 44.207C153.371 43.6647 153.562 43.2249 153.809 42.8877C154.055 42.5459 154.346 42.2975 154.684 42.1426C155.025 41.9876 155.404 41.9102 155.818 41.9102C156.146 41.9102 156.454 41.9603 156.741 42.0605C157.028 42.1562 157.286 42.3089 157.514 42.5186C157.742 42.7282 157.938 43.0016 158.102 43.3389C158.266 43.6715 158.389 44.0749 158.471 44.5488C158.557 45.0182 158.601 45.5651 158.601 46.1895ZM157.015 48.0557V45.9365C157.015 45.5446 156.996 45.1982 156.96 44.8975C156.924 44.5967 156.873 44.3415 156.81 44.1318C156.746 43.9222 156.664 43.7536 156.563 43.626C156.468 43.4938 156.356 43.3981 156.229 43.3389C156.105 43.2751 155.969 43.2432 155.818 43.2432C155.632 43.2432 155.463 43.291 155.312 43.3867C155.167 43.4824 155.041 43.6374 154.937 43.8516C154.836 44.0612 154.759 44.3392 154.704 44.6855C154.649 45.0273 154.622 45.4443 154.622 45.9365V48.0557C154.622 48.4521 154.64 48.8008 154.677 49.1016C154.713 49.4023 154.766 49.6621 154.834 49.8809C154.902 50.0951 154.984 50.2705 155.08 50.4072C155.176 50.5394 155.285 50.6374 155.408 50.7012C155.536 50.765 155.675 50.7969 155.825 50.7969C156.017 50.7969 156.185 50.7467 156.331 50.6465C156.481 50.5462 156.607 50.389 156.707 50.1748C156.807 49.9561 156.882 49.6712 156.933 49.3203C156.987 48.9694 157.015 48.5479 157.015 48.0557ZM165.601 46.1895V47.8164C165.601 48.5957 165.535 49.2611 165.402 49.8125C165.27 50.3594 165.081 50.8037 164.835 51.1455C164.589 51.4873 164.297 51.738 163.96 51.8975C163.623 52.057 163.244 52.1367 162.825 52.1367C162.497 52.1367 162.189 52.0866 161.902 51.9863C161.615 51.8861 161.355 51.7288 161.123 51.5146C160.895 51.3005 160.699 51.0247 160.535 50.6875C160.371 50.3457 160.246 49.9378 160.159 49.4639C160.073 48.9899 160.029 48.4408 160.029 47.8164V46.1895C160.029 45.4056 160.098 44.7448 160.234 44.207C160.371 43.6647 160.562 43.2249 160.809 42.8877C161.055 42.5459 161.346 42.2975 161.684 42.1426C162.025 41.9876 162.404 41.9102 162.818 41.9102C163.146 41.9102 163.454 41.9603 163.741 42.0605C164.028 42.1562 164.286 42.3089 164.514 42.5186C164.742 42.7282 164.938 43.0016 165.102 43.3389C165.266 43.6715 165.389 44.0749 165.471 44.5488C165.557 45.0182 165.601 45.5651 165.601 46.1895ZM164.015 48.0557V45.9365C164.015 45.5446 163.996 45.1982 163.96 44.8975C163.924 44.5967 163.873 44.3415 163.81 44.1318C163.746 43.9222 163.664 43.7536 163.563 43.626C163.468 43.4938 163.356 43.3981 163.229 43.3389C163.105 43.2751 162.969 43.2432 162.818 43.2432C162.632 43.2432 162.463 43.291 162.312 43.3867C162.167 43.4824 162.041 43.6374 161.937 43.8516C161.836 44.0612 161.759 44.3392 161.704 44.6855C161.649 45.0273 161.622 45.4443 161.622 45.9365V48.0557C161.622 48.4521 161.64 48.8008 161.677 49.1016C161.713 49.4023 161.766 49.6621 161.834 49.8809C161.902 50.0951 161.984 50.2705 162.08 50.4072C162.176 50.5394 162.285 50.6374 162.408 50.7012C162.536 50.765 162.675 50.7969 162.825 50.7969C163.017 50.7969 163.185 50.7467 163.331 50.6465C163.481 50.5462 163.607 50.389 163.707 50.1748C163.807 49.9561 163.882 49.6712 163.933 49.3203C163.987 48.9694 164.015 48.5479 164.015 48.0557ZM172.601 46.1895V47.8164C172.601 48.5957 172.535 49.2611 172.402 49.8125C172.27 50.3594 172.081 50.8037 171.835 51.1455C171.589 51.4873 171.297 51.738 170.96 51.8975C170.623 52.057 170.244 52.1367 169.825 52.1367C169.497 52.1367 169.189 52.0866 168.902 51.9863C168.615 51.8861 168.355 51.7288 168.123 51.5146C167.895 51.3005 167.699 51.0247 167.535 50.6875C167.371 50.3457 167.246 49.9378 167.159 49.4639C167.073 48.9899 167.029 48.4408 167.029 47.8164V46.1895C167.029 45.4056 167.098 44.7448 167.234 44.207C167.371 43.6647 167.562 43.2249 167.809 42.8877C168.055 42.5459 168.346 42.2975 168.684 42.1426C169.025 41.9876 169.404 41.9102 169.818 41.9102C170.146 41.9102 170.454 41.9603 170.741 42.0605C171.028 42.1562 171.286 42.3089 171.514 42.5186C171.742 42.7282 171.938 43.0016 172.102 43.3389C172.266 43.6715 172.389 44.0749 172.471 44.5488C172.557 45.0182 172.601 45.5651 172.601 46.1895ZM171.015 48.0557V45.9365C171.015 45.5446 170.996 45.1982 170.96 44.8975C170.924 44.5967 170.873 44.3415 170.81 44.1318C170.746 43.9222 170.664 43.7536 170.563 43.626C170.468 43.4938 170.356 43.3981 170.229 43.3389C170.105 43.2751 169.969 43.2432 169.818 43.2432C169.632 43.2432 169.463 43.291 169.312 43.3867C169.167 43.4824 169.041 43.6374 168.937 43.8516C168.836 44.0612 168.759 44.3392 168.704 44.6855C168.649 45.0273 168.622 45.4443 168.622 45.9365V48.0557C168.622 48.4521 168.64 48.8008 168.677 49.1016C168.713 49.4023 168.766 49.6621 168.834 49.8809C168.902 50.0951 168.984 50.2705 169.08 50.4072C169.176 50.5394 169.285 50.6374 169.408 50.7012C169.536 50.765 169.675 50.7969 169.825 50.7969C170.017 50.7969 170.185 50.7467 170.331 50.6465C170.481 50.5462 170.607 50.389 170.707 50.1748C170.807 49.9561 170.882 49.6712 170.933 49.3203C170.987 48.9694 171.015 48.5479 171.015 48.0557ZM180.995 50.2568V44.6035H182.588V52H181.084L180.995 50.2568ZM181.221 48.7119L181.727 48.6982C181.727 49.195 181.681 49.653 181.59 50.0723C181.499 50.4915 181.357 50.8561 181.166 51.166C180.979 51.4714 180.735 51.7106 180.435 51.8838C180.138 52.0524 179.783 52.1367 179.368 52.1367C179.063 52.1367 178.783 52.0843 178.527 51.9795C178.277 51.8747 178.06 51.7129 177.878 51.4941C177.7 51.2754 177.561 50.9906 177.461 50.6396C177.361 50.2887 177.311 49.8695 177.311 49.3818V44.6035H178.903V49.3955C178.903 49.6598 178.926 49.8809 178.972 50.0586C179.017 50.2318 179.081 50.373 179.163 50.4824C179.245 50.5872 179.336 50.6624 179.437 50.708C179.541 50.749 179.653 50.7695 179.771 50.7695C180.132 50.7695 180.416 50.6807 180.626 50.5029C180.84 50.3206 180.993 50.0745 181.084 49.7646C181.175 49.4548 181.221 49.1038 181.221 48.7119ZM189.068 50.6602V52H184.475V50.6602H189.068ZM188.979 45.6426L185.008 52H183.976V50.9199L187.927 44.6035H188.979V45.6426ZM188.378 44.6035V45.9502H184.023V44.6035H188.378ZM193.854 50.0518C193.854 49.8968 193.808 49.7601 193.717 49.6416C193.63 49.5186 193.489 49.3978 193.293 49.2793C193.097 49.1608 192.835 49.0332 192.507 48.8965C192.165 48.7552 191.862 48.6139 191.598 48.4727C191.333 48.3314 191.11 48.1764 190.928 48.0078C190.745 47.8346 190.606 47.6364 190.511 47.4131C190.415 47.1898 190.367 46.93 190.367 46.6338C190.367 46.3285 190.424 46.0459 190.538 45.7861C190.652 45.5264 190.816 45.2985 191.03 45.1025C191.244 44.902 191.502 44.7471 191.803 44.6377C192.104 44.5238 192.443 44.4668 192.821 44.4668C193.354 44.4668 193.81 44.5648 194.188 44.7607C194.571 44.9521 194.863 45.221 195.063 45.5674C195.269 45.9092 195.371 46.3034 195.371 46.75H193.778C193.778 46.5632 193.744 46.3945 193.676 46.2441C193.607 46.0892 193.503 45.9661 193.361 45.875C193.22 45.7793 193.04 45.7314 192.821 45.7314C192.621 45.7314 192.452 45.7702 192.315 45.8477C192.183 45.9206 192.083 46.0208 192.015 46.1484C191.951 46.2715 191.919 46.4105 191.919 46.5654C191.919 46.6794 191.939 46.7796 191.98 46.8662C192.021 46.9528 192.09 47.0371 192.186 47.1191C192.281 47.1966 192.409 47.2764 192.568 47.3584C192.732 47.4404 192.94 47.5339 193.19 47.6387C193.687 47.8301 194.1 48.0283 194.428 48.2334C194.756 48.4385 195.002 48.6777 195.166 48.9512C195.33 49.2246 195.412 49.5641 195.412 49.9697C195.412 50.2979 195.351 50.5941 195.228 50.8584C195.109 51.1227 194.936 51.3506 194.708 51.542C194.485 51.7334 194.214 51.8815 193.895 51.9863C193.58 52.0866 193.229 52.1367 192.842 52.1367C192.263 52.1367 191.773 52.0228 191.372 51.7949C190.976 51.5625 190.675 51.264 190.47 50.8994C190.265 50.5348 190.162 50.1497 190.162 49.7441H191.7C191.714 50.0358 191.775 50.2637 191.885 50.4277C191.999 50.5918 192.142 50.7057 192.315 50.7695C192.489 50.8288 192.669 50.8584 192.855 50.8584C193.079 50.8584 193.263 50.8288 193.409 50.7695C193.555 50.7057 193.664 50.6123 193.737 50.4893C193.815 50.3662 193.854 50.2204 193.854 50.0518Z" fill="black"/>
<rect x="22" y="12" width="147" height="4" fill="#FBD029"/>
<rect opacity="0.1" x="165" y="12" width="46" height="4" fill="black"/>
<rect opacity="0.1" y="12" width="35" height="4" fill="black"/>
<circle cx="29" cy="14" r="11.5" fill="#FBD029" stroke="#1F1D14" stroke-width="5"/>
<circle cx="159" cy="14" r="11.5" fill="#FBD029" stroke="#1F1D14" stroke-width="5"/>
</svg>
