<svg width="16" height="17" viewBox="0 0 16 17" fill="none" xmlns="http://www.w3.org/2000/svg">
<path d="M13.3334 5.9535V2.50016C13.3334 2.32335 13.2632 2.15378 13.1382 2.02876C13.0132 1.90373 12.8436 1.8335 12.6668 1.8335C12.49 1.8335 12.3204 1.90373 12.1954 2.02876C12.0703 2.15378 12.0001 2.32335 12.0001 2.50016V5.9535C11.614 6.09363 11.2804 6.34925 11.0447 6.68561C10.8089 7.02196 10.6825 7.42275 10.6825 7.8335C10.6825 8.24424 10.8089 8.64503 11.0447 8.98139C11.2804 9.31774 11.614 9.57336 12.0001 9.7135V14.5002C12.0001 14.677 12.0703 14.8465 12.1954 14.9716C12.3204 15.0966 12.49 15.1668 12.6668 15.1668C12.8436 15.1668 13.0132 15.0966 13.1382 14.9716C13.2632 14.8465 13.3334 14.677 13.3334 14.5002V9.7135C13.7195 9.57336 14.0531 9.31774 14.2889 8.98139C14.5246 8.64503 14.6511 8.24424 14.6511 7.8335C14.6511 7.42275 14.5246 7.02196 14.2889 6.68561C14.0531 6.34925 13.7195 6.09363 13.3334 5.9535ZM12.6668 8.50016C12.5349 8.50016 12.406 8.46106 12.2964 8.38781C12.1868 8.31456 12.1013 8.21044 12.0509 8.08862C12.0004 7.9668 11.9872 7.83276 12.0129 7.70344C12.0386 7.57412 12.1021 7.45533 12.1954 7.36209C12.2886 7.26886 12.4074 7.20536 12.5367 7.17964C12.666 7.15392 12.8001 7.16712 12.9219 7.21758C13.0437 7.26803 13.1478 7.35348 13.2211 7.46312C13.2943 7.57275 13.3334 7.70164 13.3334 7.8335C13.3334 8.01031 13.2632 8.17988 13.1382 8.3049C13.0132 8.42992 12.8436 8.50016 12.6668 8.50016ZM8.66677 9.9535V2.50016C8.66677 2.32335 8.59653 2.15378 8.47151 2.02876C8.34649 1.90373 8.17692 1.8335 8.00011 1.8335C7.82329 1.8335 7.65373 1.90373 7.5287 2.02876C7.40368 2.15378 7.33344 2.32335 7.33344 2.50016V9.9535C6.94734 10.0936 6.61375 10.3492 6.378 10.6856C6.14225 11.022 6.01579 11.4228 6.01579 11.8335C6.01579 12.2442 6.14225 12.645 6.378 12.9814C6.61375 13.3177 6.94734 13.5734 7.33344 13.7135V14.5002C7.33344 14.677 7.40368 14.8465 7.5287 14.9716C7.65373 15.0966 7.82329 15.1668 8.00011 15.1668C8.17692 15.1668 8.34649 15.0966 8.47151 14.9716C8.59653 14.8465 8.66677 14.677 8.66677 14.5002V13.7135C9.05287 13.5734 9.38647 13.3177 9.62221 12.9814C9.85796 12.645 9.98442 12.2442 9.98442 11.8335C9.98442 11.4228 9.85796 11.022 9.62221 10.6856C9.38647 10.3492 9.05287 10.0936 8.66677 9.9535ZM8.00011 12.5002C7.86825 12.5002 7.73936 12.4611 7.62973 12.3878C7.52009 12.3146 7.43464 12.2104 7.38419 12.0886C7.33373 11.9668 7.32053 11.8328 7.34625 11.7034C7.37197 11.5741 7.43547 11.4553 7.5287 11.3621C7.62194 11.2689 7.74073 11.2054 7.87005 11.1796C7.99937 11.1539 8.13341 11.1671 8.25523 11.2176C8.37705 11.268 8.48116 11.3535 8.55442 11.4631C8.62767 11.5727 8.66677 11.7016 8.66677 11.8335C8.66677 12.0103 8.59653 12.1799 8.47151 12.3049C8.34649 12.4299 8.17692 12.5002 8.00011 12.5002ZM4.00011 4.62016V2.50016C4.00011 2.32335 3.92987 2.15378 3.80484 2.02876C3.67982 1.90373 3.51025 1.8335 3.33344 1.8335C3.15663 1.8335 2.98706 1.90373 2.86203 2.02876C2.73701 2.15378 2.66677 2.32335 2.66677 2.50016V4.62016C2.28067 4.7603 1.94708 5.01592 1.71133 5.35227C1.47559 5.68863 1.34912 6.08942 1.34912 6.50016C1.34912 6.91091 1.47559 7.3117 1.71133 7.64805C1.94708 7.98441 2.28067 8.24003 2.66677 8.38016V14.5002C2.66677 14.677 2.73701 14.8465 2.86203 14.9716C2.98706 15.0966 3.15663 15.1668 3.33344 15.1668C3.51025 15.1668 3.67982 15.0966 3.80484 14.9716C3.92987 14.8465 4.00011 14.677 4.00011 14.5002V8.38016C4.38621 8.24003 4.7198 7.98441 4.95554 7.64805C5.19129 7.3117 5.31776 6.91091 5.31776 6.50016C5.31776 6.08942 5.19129 5.68863 4.95554 5.35227C4.7198 5.01592 4.38621 4.7603 4.00011 4.62016ZM3.33344 7.16683C3.20158 7.16683 3.07269 7.12773 2.96306 7.05448C2.85343 6.98122 2.76798 6.8771 2.71752 6.75529C2.66706 6.63347 2.65386 6.49942 2.67958 6.3701C2.70531 6.24078 2.7688 6.12199 2.86203 6.02876C2.95527 5.93552 3.07406 5.87203 3.20338 5.84631C3.3327 5.82058 3.46674 5.83378 3.58856 5.88424C3.71038 5.9347 3.8145 6.02015 3.88775 6.12978C3.96101 6.23942 4.00011 6.36831 4.00011 6.50016C4.00011 6.67697 3.92987 6.84654 3.80484 6.97157C3.67982 7.09659 3.51025 7.16683 3.33344 7.16683Z" fill="#1F1D14"/>
</svg>
